<?xml version="1.0" standalone="no"?>
<!DOCTYPE svg PUBLIC "-//W3C//DTD SVG 20010904//EN"
 "http://www.w3.org/TR/2001/REC-SVG-20010904/DTD/svg10.dtd">
<svg version="1.0" xmlns="http://www.w3.org/2000/svg"
 width="1080.000000pt" height="1080.000000pt" viewBox="0 0 1080.000000 1080.000000"
 preserveAspectRatio="xMidYMid meet">
<metadata>
Created by potrace 1.14, written by Peter Selinger 2001-2017
</metadata>
<g transform="translate(0.000000,1080.000000) scale(0.100000,-0.100000)"
fill="#000000" stroke="none">
<path d="M5149 10586 c-2 -2 -51 -6 -109 -10 -98 -5 -257 -21 -318 -30 -56 -9
-108 -17 -137 -21 -16 -2 -70 -11 -120 -20 -49 -9 -103 -19 -120 -22 -16 -3
-115 -27 -220 -53 -525 -135 -990 -332 -1455 -618 -98 -60 -333 -220 -391
-266 -14 -12 -43 -34 -64 -51 -283 -219 -555 -484 -829 -808 -56 -66 -213
-276 -277 -372 -83 -122 -189 -289 -189 -298 0 -3 -17 -34 -39 -68 -63 -105
-261 -506 -261 -530 0 -5 -5 -17 -10 -27 -41 -70 -195 -524 -234 -687 -1 -5
-5 -19 -9 -30 -3 -11 -8 -31 -11 -45 -2 -14 -15 -77 -30 -140 -14 -63 -28
-133 -31 -155 -4 -22 -8 -47 -10 -55 -3 -8 -7 -35 -10 -60 -3 -25 -8 -56 -10
-70 -2 -14 -7 -45 -10 -70 -2 -25 -8 -67 -11 -95 -22 -173 -29 -316 -29 -590
0 -230 7 -410 20 -515 1 -14 6 -50 9 -80 4 -30 9 -71 12 -90 2 -19 7 -53 9
-75 5 -35 12 -78 29 -177 3 -18 32 -158 51 -248 2 -8 14 -58 28 -110 204 -781
569 -1479 1089 -2087 112 -131 392 -415 500 -508 38 -33 80 -69 92 -80 12 -11
58 -48 101 -83 44 -35 87 -68 95 -75 119 -94 447 -312 575 -382 28 -15 75 -42
105 -59 101 -58 413 -203 555 -259 306 -120 715 -239 970 -280 221 -37 279
-45 346 -52 24 -2 67 -7 94 -10 155 -16 257 -20 510 -20 238 0 456 9 515 20 8
2 44 6 80 9 36 4 75 8 85 10 11 2 43 7 70 10 64 9 106 16 125 21 8 2 35 7 60
10 25 3 52 8 60 10 8 2 29 7 45 10 17 2 41 7 55 10 14 3 36 8 50 11 211 42
738 212 866 279 16 8 32 15 36 15 11 0 157 68 298 140 273 137 536 302 790
493 80 61 147 113 150 116 3 3 21 19 40 35 140 114 468 434 580 565 30 35 62
72 71 81 41 43 219 278 303 400 187 270 343 552 496 894 119 265 279 784 317
1021 2 17 8 46 13 65 5 19 12 58 16 85 3 28 8 52 9 55 2 3 7 33 10 65 4 33 9
68 11 78 2 10 6 44 9 75 3 31 8 71 10 87 26 214 27 872 0 1025 -2 14 -7 54
-10 90 -11 118 -30 238 -62 400 -13 69 -27 136 -29 149 -24 122 -97 378 -160
561 -113 327 -297 715 -469 991 -5 9 -18 32 -29 50 -56 101 -315 459 -401 555
-5 6 -30 36 -55 65 -134 161 -366 397 -518 529 -35 30 -69 60 -75 65 -134 120
-566 435 -596 435 -6 0 -11 3 -11 8 0 4 -10 12 -23 18 -12 6 -78 44 -147 84
-192 111 -409 219 -599 296 -47 19 -95 39 -106 44 -46 20 -273 97 -410 139
-109 33 -355 93 -435 107 -14 2 -45 9 -70 14 -25 5 -60 12 -77 15 -18 3 -45 7
-60 10 -67 11 -114 17 -218 30 -17 2 -66 7 -110 10 -44 4 -91 9 -105 12 -30 6
-645 14 -651 9z"/>
</g>
</svg>
